HIERARCHY
ROOT Hips
{
	OFFSET 0.000000 0.000000 0.000000
	CHANNELS 6 Xposition Yposition Zposition Zrotation Yrotation Xrotation 
	JOINT LHipJoint
	{
		OFFSET 0.000000 0.000000 0.000000
		CHANNELS 3 Zrotation Yrotation Xrotation
		JOINT LeftUpLeg
		{
			OFFSET 1.363060 -1.794630 0.839290
			CHANNELS 3 Zrotation Yrotation Xrotation
			JOINT LeftLeg
			{
				OFFSET 2.448110 -6.726130 0.000000
				CHANNELS 3 Zrotation Yrotation Xrotation
				JOINT LeftFoot
				{
					OFFSET 2.562200 -7.039590 0.000000
					CHANNELS 3 Zrotation Yrotation Xrotation
					JOINT LeftToeBase
					{
						OFFSET 0.157640 -0.433110 2.322550
						CHANNELS 3 Zrotation Yrotation Xrotation
						End Site
						{
							OFFSET 0.000000 0.000000 0.000000
						}
					}
				}
			}
		}
	}
	JOINT RHipJoint
	{
		OFFSET 0.000000 0.000000 0.000000
		CHANNELS 3 Zrotation Yrotation Xrotation
		JOINT RightUpLeg
		{
			OFFSET -1.305520 -1.794630 0.839290
			CHANNELS 3 Zrotation Yrotation Xrotation
			JOINT RightLeg
			{
				OFFSET -2.542530 -6.985550 0.000000
				CHANNELS 3 Zrotation Yrotation Xrotation
				JOINT RightFoot
				{
					OFFSET -2.568260 -7.056230 0.000000
					CHANNELS 3 Zrotation Yrotation Xrotation
					JOINT RightToeBase
					{
						OFFSET -0.164730 -0.452590 2.363150
						CHANNELS 3 Zrotation Yrotation Xrotation
						End Site
						{
							OFFSET 0.000000 0.000000 0.000000
						}
					}
				}
			}
		}
	}
	JOINT LowerBack
	{
		OFFSET 0.000000 0.000000 0.000000
		CHANNELS 3 Zrotation Yrotation Xrotation
		JOINT Spine
		{
			OFFSET 0.028270 2.035590 -0.193380
			CHANNELS 3 Zrotation Yrotation Xrotation
			JOINT Spine1
			{
				OFFSET 0.056720 2.048850 -0.042750
				CHANNELS 3 Zrotation Yrotation Xrotation
				JOINT Neck
				{
					OFFSET 0.000000 0.000000 0.000000
					CHANNELS 3 Zrotation Yrotation Xrotation
					JOINT Neck1
					{
						OFFSET -0.054170 1.746240 0.172020
						CHANNELS 3 Zrotation Yrotation Xrotation
						JOINT Head
						{
							OFFSET 0.104070 1.761360 -0.123970
							CHANNELS 3 Zrotation Yrotation Xrotation
							End Site
							{
								OFFSET 0.000000 0.000000 0.000000
							}
						}
					}
				}
				JOINT LeftShoulder
				{
					OFFSET 0.000000 0.000000 0.000000
					CHANNELS 3 Zrotation Yrotation Xrotation
					JOINT LeftArm
					{
						OFFSET 3.362410 1.200890 -0.311210
						CHANNELS 3 Zrotation Yrotation Xrotation
						JOINT LeftForeArm
						{
							OFFSET 4.983000 -0.000000 -0.000000
							CHANNELS 3 Zrotation Yrotation Xrotation
							JOINT LeftHand
							{
								OFFSET 3.483560 -0.000000 -0.000000
								CHANNELS 3 Zrotation Yrotation Xrotation
								JOINT LeftFingerBase
								{
									OFFSET 0.000000 0.000000 0.000000
									CHANNELS 3 Zrotation Yrotation Xrotation
									JOINT LeftHandIndex1
									{
										OFFSET 0.715260 -0.000000 -0.000000
										CHANNELS 3 Zrotation Yrotation Xrotation
										End Site
										{
											OFFSET 0.000000 0.000000 0.000000
										}
									}
								}
								JOINT LThumb
								{
									OFFSET 0.000000 0.000000 0.000000
									CHANNELS 3 Zrotation Yrotation Xrotation
									End Site
									{
										OFFSET 0.000000 0.000000 0.000000
									}
								}
							}
						}
					}
				}
				JOINT RightShoulder
				{
					OFFSET 0.000000 0.000000 0.000000
					CHANNELS 3 Zrotation Yrotation Xrotation
					JOINT RightArm
					{
						OFFSET -3.136600 1.374050 -0.404650
						CHANNELS 3 Zrotation Yrotation Xrotation
						JOINT RightForeArm
						{
							OFFSET -5.241900 -0.000000 -0.000000
							CHANNELS 3 Zrotation Yrotation Xrotation
							JOINT RightHand
							{
								OFFSET -3.444170 -0.000000 -0.000000
								CHANNELS 3 Zrotation Yrotation Xrotation
								JOINT RightFingerBase
								{
									OFFSET 0.000000 0.000000 0.000000
									CHANNELS 3 Zrotation Yrotation Xrotation
									JOINT RightHandIndex1
									{
										OFFSET -0.622530 -0.000000 -0.000000
										CHANNELS 3 Zrotation Yrotation Xrotation
										End Site
										{
											OFFSET 0.000000 0.000000 0.000000
										}
									}
								}
								JOINT RThumb
								{
									OFFSET 0.000000 0.000000 0.000000
									CHANNELS 3 Zrotation Yrotation Xrotation
									End Site
									{
										OFFSET 0.000000 0.000000 0.000000
									}
								}
							}
						}
					}
				}
			}
		}
	}
}
MOTION
Frames: 4
Frame Time: 0.008333
-1.936894 16.930906 -0.670819 32.920353 77.330744 44.689167 -11.069508 3.300057 -2.340018 -2.440035 11.883401 -8.094850 -1.137006 2.038435 32.239611 0.449122 -1.684119 12.505994 -0.686499 0.000000 -80.647200 9.249599 0.891645 -0.822570 14.692189 -9.255737 -35.124760 1.887791 0.788414 7.691628 -4.581166 -20.238108 -3.574354 176.328200 0.000000 -1.514200 3.461534 -2.701890 4.199786 -0.120649 -2.811566 -1.536137 -6.591632 -2.768687 2.602103 7.106112 -6.845499 -4.328380 -4.014995 -0.319334 0.698184 0.000000 0.000000 0.000000 -3.892260 7.735645 2.774647 -35.849911 -15.611342 0.102069 -3.480894 -48.155776 0.012747 -12.001005 1.860765 -0.185817 -0.102799 0.067204 0.000000 0.000000 0.000000 0.000000 0.000000 0.000000 0.000000 15.980354 -7.002800 -0.353397 72.598273 -6.235049 -9.402668 4.158276 19.872332 0.010903 9.298547 6.889704 0.561745 0.039514 -0.035411 -0.000000 0.000000 0.000000 0.000000 0.000000 0.000000 0.000000 
-1.832644 16.948651 -0.580978 31.430944 76.959523 43.178066 -11.161798 3.247653 -2.370628 -1.872523 12.003211 -9.049214 -0.962198 2.162013 34.368427 0.516519 -2.603486 14.656843 -1.130700 0.000001 -79.770100 9.195696 0.814277 -0.799182 14.877034 -8.719806 -34.777734 1.874213 0.727451 8.414746 -4.614487 -20.200977 -4.192682 176.580600 -0.000000 -3.467400 3.675106 -2.613923 4.215209 -0.065980 -2.727695 -1.558913 -6.521102 -2.691812 2.550616 7.148453 -6.486903 -4.183006 -4.001874 -0.319580 0.735659 0.000000 0.000000 0.000000 -3.866051 7.804836 2.715142 -37.319045 -14.690759 0.369434 -3.604749 -47.142288 0.010810 -12.100952 1.934573 -0.195900 -0.110669 0.059158 0.000000 0.000000 0.000000 0.000000 0.000000 0.000000 0.000000 15.846980 -6.615129 -0.371198 72.401052 -5.422940 -9.111022 4.153930 19.896194 0.010865 9.324655 6.885017 0.563045 0.038819 -0.035605 -0.000000 0.000000 0.000000 0.000000 0.000000 0.000000 0.000000 
-1.731847 16.966117 -0.488739 30.230261 76.575701 41.962603 -11.228870 3.176492 -2.386700 -1.391679 11.981333 -10.037913 -0.798406 2.270774 36.505882 0.600812 -3.387176 16.647705 -1.579000 0.000000 -78.019000 9.153356 0.752491 -0.775224 15.027458 -8.206752 -34.347780 1.848655 0.692671 8.955082 -4.674339 -20.268360 -4.867601 176.837100 -0.000000 -5.167200 3.806794 -2.544902 4.217509 -0.027144 -2.660684 -1.582278 -6.448243 -2.631523 2.501177 7.220751 -6.143230 -4.037022 -3.981996 -0.319456 0.773925 0.000000 0.000000 0.000000 -3.799546 7.854355 2.656364 -38.728379 -13.731334 0.701249 -3.724375 -46.083884 0.008857 -12.208983 2.009751 -0.206390 -0.117724 0.051181 0.000000 0.000000 0.000000 0.000000 0.000000 0.000000 0.000000 15.718190 -6.248313 -0.390660 72.212405 -4.572369 -8.704171 4.145830 20.008955 0.010780 9.388175 6.870120 0.565745 0.037733 -0.035710 -0.000000 0.000000 0.000000 0.000000 0.000000 0.000000 0.000000 
-1.634493 16.983154 -0.394565 29.328403 76.191763 41.049668 -11.272244 3.090369 -2.386443 -1.001411 11.808611 -11.054999 -0.647381 2.367815 38.638859 0.694482 -3.957474 18.388654 -1.971900 -0.000000 -75.536900 9.122549 0.705377 -0.755097 15.142961 -7.741973 -33.839674 1.815644 0.682449 9.307370 -4.749070 -20.401317 -5.559566 177.093200 0.000001 -6.595100 3.861769 -2.495520 4.207651 -0.003117 -2.611406 -1.606022 -6.373834 -2.588617 2.453514 7.318858 -5.829088 -3.894052 -3.956351 -0.319010 0.812047 0.000000 0.000000 0.000000 -3.702067 7.870474 2.599799 -40.065078 -12.729343 1.108742 -3.838140 -44.997271 0.006857 -12.324971 2.091307 -0.217890 -0.123941 0.043185 0.000000 0.000000 0.000000 0.000000 0.000000 0.000000 0.000000 15.596146 -5.917061 -0.410594 72.028183 -3.684053 -8.162595 4.132963 20.226774 0.010666 9.483011 6.849537 0.569946 0.036260 -0.035805 -0.000000 0.000000 0.000000 0.000000 0.000000 0.000000 0.000000 
